<svg width="512" height="512" viewBox="0 0 512 512" fill="none" xmlns="http://www.w3.org/2000/svg">
<path d="M332.908 83.8133C342.831 72.775 350.396 59.9536 355.171 46.0853C359.945 32.217 361.834 17.575 360.73 3C330.267 5.3734 301.99 19.2021 281.99 41.5066C272.413 52.1967 265.155 64.6329 260.647 78.0789C256.138 91.525 254.471 105.707 255.744 119.787C270.603 119.906 285.292 116.724 298.672 110.486C312.053 104.248 323.767 95.1214 332.908 83.8133ZM399.049 272.293C399.225 252.881 404.523 233.833 414.442 216.945C424.361 200.057 438.575 185.888 455.742 175.773C444.908 160.706 430.586 148.282 413.911 139.488C397.237 130.693 378.669 125.769 359.68 125.107C318.735 121.053 280.94 148.16 259.156 148.16C237.371 148.16 206.663 125.613 172.542 126.12C150.236 126.829 128.501 133.106 109.458 144.339C90.4138 155.572 74.7114 171.377 63.882 190.213C17.6882 267.733 52.071 383 98.2648 445.573C119.262 476.226 145.508 510.933 180.154 509.666C214.799 508.4 226.085 488.893 266.242 488.893C306.399 488.893 318.735 509.666 352.856 508.906C386.976 508.146 411.123 477.493 433.17 446.84C448.788 424.585 460.987 400.267 469.39 374.64C448.589 366.077 430.842 351.822 418.342 333.633C405.841 315.444 399.134 294.12 399.049 272.293Z" fill="black"/>
</svg>
