<svg width="48" height="48" viewBox="0 0 48 48" fill="none" xmlns="http://www.w3.org/2000/svg">
<path d="M11.9961 43.986V7.99772C11.9961 6.9372 12.4174 5.92012 13.1673 5.17022C13.9172 4.42031 14.9343 3.99902 15.9948 3.99902H31.9896C33.0501 3.99902 34.0672 4.42031 34.8171 5.17022C35.567 5.92012 35.9883 6.9372 35.9883 7.99772V43.986H11.9961Z" stroke="white" stroke-width="3.9987" stroke-linecap="round" stroke-linejoin="round"/>
<path d="M11.9954 23.9922H7.99675C6.93623 23.9922 5.91914 24.4135 5.16924 25.1634C4.41934 25.9133 3.99805 26.9304 3.99805 27.9909V39.987C3.99805 41.0475 4.41934 42.0646 5.16924 42.8145C5.91914 43.5644 6.93623 43.9857 7.99675 43.9857H11.9954" stroke="white" stroke-width="3.9987" stroke-linecap="round" stroke-linejoin="round"/>
<path d="M35.9883 17.9941H39.987C41.0475 17.9941 42.0646 18.4154 42.8145 19.1653C43.5644 19.9152 43.9857 20.9323 43.9857 21.9928V39.987C43.9857 41.0475 43.5644 42.0646 42.8145 42.8145C42.0646 43.5644 41.0475 43.9857 39.987 43.9857H35.9883" stroke="white" stroke-width="3.9987" stroke-linecap="round" stroke-linejoin="round"/>
<path d="M19.9941 11.9961H27.9915" stroke="white" stroke-width="3.9987" stroke-linecap="round" stroke-linejoin="round"/>
<path d="M19.9941 19.9932H27.9915" stroke="white" stroke-width="3.9987" stroke-linecap="round" stroke-linejoin="round"/>
<path d="M19.9941 27.9912H27.9915" stroke="white" stroke-width="3.9987" stroke-linecap="round" stroke-linejoin="round"/>
<path d="M19.9941 35.9883H27.9915" stroke="white" stroke-width="3.9987" stroke-linecap="round" stroke-linejoin="round"/>
</svg>
