<svg width="48" height="48" viewBox="0 0 48 48" fill="none" xmlns="http://www.w3.org/2000/svg">
<path d="M27.9852 7.99707C28.7066 7.99706 29.4145 8.19218 30.034 8.56176C30.6535 8.93134 31.1614 9.46161 31.5041 10.0964L32.4758 11.8958C32.8184 12.5306 33.3264 13.0609 33.9459 13.4304C34.5654 13.8 35.2733 13.9951 35.9946 13.9951H39.9873C41.0479 13.9951 42.0649 14.4164 42.8148 15.1663C43.5647 15.9162 43.986 16.9333 43.986 17.9938V35.988C43.986 37.0485 43.5647 38.0656 42.8148 38.8155C42.0649 39.5654 41.0479 39.9867 39.9873 39.9867H7.99772C6.9372 39.9867 5.92012 39.5654 5.17022 38.8155C4.42031 38.0656 3.99902 37.0485 3.99902 35.988V17.9938C3.99902 16.9333 4.42031 15.9162 5.17022 15.1663C5.92012 14.4164 6.9372 13.9951 7.99772 13.9951H11.9904C12.711 13.9952 13.4183 13.8005 14.0373 13.4316C14.6564 13.0628 15.1643 12.5335 15.5073 11.8998L16.485 10.0924C16.828 9.45865 17.3359 8.92939 17.9549 8.56055C18.574 8.19172 19.2812 7.99703 20.0018 7.99707H27.9852Z" stroke="white" stroke-width="3.9987" stroke-linecap="round" stroke-linejoin="round"/>
<path d="M23.9922 31.9893C27.3048 31.9893 29.9902 29.3038 29.9902 25.9912C29.9902 22.6786 27.3048 19.9932 23.9922 19.9932C20.6796 19.9932 17.9941 22.6786 17.9941 25.9912C17.9941 29.3038 20.6796 31.9893 23.9922 31.9893Z" stroke="white" stroke-width="3.9987" stroke-linecap="round" stroke-linejoin="round"/>
</svg>
