<svg width="20" height="20" viewBox="0 0 20 20" fill="none" xmlns="http://www.w3.org/2000/svg">
<path d="M9.1625 18.0996C9.41574 18.2458 9.70301 18.3228 9.99544 18.3228C10.2879 18.3228 10.5751 18.2458 10.8284 18.0996L16.6589 14.7678C16.9119 14.6218 17.122 14.4117 17.2682 14.1588C17.4144 13.9059 17.4915 13.619 17.4918 13.3269V6.66338C17.4915 6.37125 17.4144 6.08433 17.2682 5.83141C17.122 5.5785 16.9119 5.36847 16.6589 5.2224L10.8284 1.89066C10.5751 1.74445 10.2879 1.66748 9.99544 1.66748C9.70301 1.66748 9.41574 1.74445 9.1625 1.89066L3.33196 5.2224C3.07896 5.36847 2.86883 5.5785 2.72263 5.83141C2.57644 6.08433 2.49932 6.37125 2.49902 6.66338V13.3269C2.49932 13.619 2.57644 13.9059 2.72263 14.1588C2.86883 14.4117 3.07896 14.6218 3.33196 14.7678L9.1625 18.0996Z" stroke="white" stroke-width="1.66587" stroke-linecap="round" stroke-linejoin="round"/>
<path d="M9.99512 18.3245V9.99512" stroke="white" stroke-width="1.66587" stroke-linecap="round" stroke-linejoin="round"/>
<path d="M2.74023 5.83057L9.9951 9.99524L17.25 5.83057" stroke="white" stroke-width="1.66587" stroke-linecap="round" stroke-linejoin="round"/>
<path d="M6.24707 3.55664L13.7435 7.84625" stroke="white" stroke-width="1.66587" stroke-linecap="round" stroke-linejoin="round"/>
</svg>
