<svg width="501" height="512" viewBox="0 0 501 512" fill="none" xmlns="http://www.w3.org/2000/svg">
<g clip-path="url(#clip0_282_304)">
<path d="M500.062 260.789C500.062 239.813 498.36 224.506 494.676 208.632H255.146V303.309H395.745C392.912 326.837 377.604 362.271 343.588 386.081L343.111 389.251L418.846 447.921L424.093 448.445C472.281 403.94 500.062 338.459 500.062 260.789Z" fill="#4285F4"/>
<path d="M255.147 510.241C324.028 510.241 381.855 487.563 424.093 448.446L343.588 386.081C322.045 401.105 293.13 411.593 255.147 411.593C187.682 411.593 130.422 367.09 110.01 305.578L107.018 305.832L28.2681 366.778L27.2383 369.641C69.191 452.979 155.365 510.241 255.147 510.241Z" fill="#34A853"/>
<path d="M110.01 305.578C104.624 289.704 101.507 272.694 101.507 255.12C101.507 237.544 104.624 220.537 109.726 204.663L109.584 201.282L29.8465 139.357L27.2376 140.598C9.94686 175.182 0.0253906 214.018 0.0253906 255.12C0.0253906 296.223 9.94686 335.057 27.2376 369.64L110.01 305.578Z" fill="#FBBC05"/>
<path d="M255.147 98.646C303.052 98.646 335.367 119.339 353.793 136.632L425.793 66.3314C381.574 25.2287 324.028 0 255.147 0C155.365 0 69.191 57.26 27.2383 140.599L109.727 204.663C130.422 143.151 187.682 98.646 255.147 98.646Z" fill="#EB4335"/>
</g>
<defs>
<clipPath id="clip0_282_304">
<rect width="500.326" height="512" fill="white"/>
</clipPath>
</defs>
</svg>
