<svg width="24" height="24" viewBox="0 0 24 24" fill="none" xmlns="http://www.w3.org/2000/svg">
<path d="M14.9951 20.9932V12.9958C14.9951 12.7306 14.8898 12.4764 14.7023 12.2889C14.5148 12.1014 14.2606 11.9961 13.9954 11.9961H9.99675C9.73162 11.9961 9.47734 12.1014 9.28987 12.2889C9.10239 12.4764 8.99707 12.7306 8.99707 12.9958V20.9932" stroke="#6A7282" stroke-width="1.99935" stroke-linecap="round" stroke-linejoin="round"/>
<path d="M2.99902 9.99691C2.99895 9.70607 3.06234 9.41872 3.18475 9.1549C3.30717 8.89107 3.48566 8.65714 3.70779 8.4694L10.7055 2.47135C11.0664 2.16636 11.5236 1.99902 11.9961 1.99902C12.4686 1.99902 12.9258 2.16636 13.2867 2.47135L20.2844 8.4694C20.5065 8.65714 20.685 8.89107 20.8075 9.1549C20.9299 9.41872 20.9932 9.70607 20.9932 9.99691V18.994C20.9932 19.5242 20.7825 20.0328 20.4076 20.4077C20.0326 20.7827 19.5241 20.9933 18.9938 20.9933H4.99837C4.46811 20.9933 3.95957 20.7827 3.58462 20.4077C3.20967 20.0328 2.99902 19.5242 2.99902 18.994V9.99691Z" stroke="#6A7282" stroke-width="1.99935" stroke-linecap="round" stroke-linejoin="round"/>
</svg>
