<svg width="87" height="87" viewBox="0 0 87 87" fill="none" xmlns="http://www.w3.org/2000/svg">
<path d="M43.25 64.875V18.0205" stroke="white" stroke-width="5.40629" stroke-linecap="round" stroke-linejoin="round"/>
<path d="M54.0627 46.8543C50.9443 45.9427 48.2053 44.0453 46.256 41.4462C44.3067 38.8471 43.252 35.6864 43.2501 32.4375C43.2481 35.6864 42.1935 38.8471 40.2442 41.4462C38.2949 44.0453 35.5559 45.9427 32.4375 46.8543" stroke="white" stroke-width="5.40629" stroke-linecap="round" stroke-linejoin="round"/>
<path d="M63.4264 23.4274C64.2558 21.991 64.7436 20.3832 64.8521 18.7282C64.9607 17.0732 64.687 15.4154 64.0524 13.8831C63.4177 12.3507 62.439 10.985 61.1921 9.89137C59.9451 8.79779 58.4633 8.00572 56.8613 7.57645C55.2592 7.14718 53.5799 7.0922 51.9532 7.41579C50.3265 7.73937 48.7961 8.43283 47.4803 9.44253C46.1645 10.4522 45.0986 11.7511 44.3651 13.2386C43.6316 14.7262 43.2501 16.3625 43.2502 18.0211C43.2502 16.3625 42.8688 14.7262 42.1352 13.2386C41.4017 11.7511 40.3358 10.4522 39.02 9.44253C37.7042 8.43283 36.1738 7.73937 34.5471 7.41579C32.9204 7.0922 31.2411 7.14718 29.639 7.57645C28.037 8.00572 26.5552 8.79779 25.3082 9.89137C24.0613 10.985 23.0826 12.3507 22.4479 13.8831C21.8133 15.4154 21.5396 17.0732 21.6482 18.7282C21.7567 20.3832 22.2445 21.991 23.0739 23.4274" stroke="white" stroke-width="5.40629" stroke-linecap="round" stroke-linejoin="round"/>
<path d="M64.8643 18.4717C66.9828 19.0164 68.9496 20.0361 70.6157 21.4535C72.2818 22.8709 73.6036 24.6488 74.4808 26.6527C75.3581 28.6565 75.7678 30.8337 75.679 33.0193C75.5903 35.205 75.0053 37.3418 73.9685 39.2679" stroke="white" stroke-width="5.40629" stroke-linecap="round" stroke-linejoin="round"/>
<path d="M64.875 64.8753C68.0485 64.8752 71.1333 63.8279 73.651 61.896C76.1686 59.964 77.9785 57.2553 78.7999 54.1899C79.6213 51.1246 79.4082 47.8738 78.1939 44.9419C76.9795 42.0099 74.8316 39.5605 72.0834 37.9736" stroke="white" stroke-width="5.40629" stroke-linecap="round" stroke-linejoin="round"/>
<path d="M71.9651 63.0117C72.2177 64.966 72.067 66.9514 71.5222 68.8452C70.9775 70.739 70.0502 72.501 68.7978 74.0224C67.5454 75.5438 65.9944 76.7923 64.2406 77.6907C62.4867 78.5892 60.5673 79.1186 58.6009 79.2462C56.6344 79.3738 54.6627 79.0969 52.8075 78.4327C50.9522 77.7684 49.2528 76.7308 47.8143 75.384C46.3758 74.0373 45.2286 72.4099 44.4437 70.6024C43.6587 68.7949 43.2526 66.8457 43.2505 64.8751C43.2484 66.8457 42.8424 68.7949 42.0574 70.6024C41.2725 72.4099 40.1253 74.0373 38.6868 75.384C37.2482 76.7308 35.5488 77.7684 33.6936 78.4327C31.8384 79.0969 29.8666 79.3738 27.9002 79.2462C25.9337 79.1186 24.0143 78.5892 22.2605 77.6907C20.5067 76.7923 18.9556 75.5438 17.7032 74.0224C16.4508 72.501 15.5236 70.739 14.9788 68.8452C14.4341 66.9514 14.2833 64.966 14.5359 63.0117" stroke="white" stroke-width="5.40629" stroke-linecap="round" stroke-linejoin="round"/>
<path d="M21.6251 64.8753C18.4516 64.8752 15.3668 63.8279 12.8492 61.896C10.3315 59.964 8.52162 57.2553 7.70024 54.1899C6.87887 51.1246 7.09188 47.8738 8.30625 44.9419C9.52062 42.0099 11.6685 39.5605 14.4167 37.9736" stroke="white" stroke-width="5.40629" stroke-linecap="round" stroke-linejoin="round"/>
<path d="M21.6362 18.4717C19.5177 19.0164 17.5509 20.0361 15.8848 21.4535C14.2187 22.8709 12.8969 24.6488 12.0197 26.6527C11.1424 28.6565 10.7327 30.8337 10.8214 33.0193C10.9102 35.205 11.4952 37.3418 12.532 39.2679" stroke="white" stroke-width="5.40629" stroke-linecap="round" stroke-linejoin="round"/>
</svg>
