<svg width="24" height="24" viewBox="0 0 24 24" fill="none" xmlns="http://www.w3.org/2000/svg">
<path d="M21.9925 11.9961H15.9945L13.9951 14.9951H9.99643L7.99708 11.9961H1.99902" stroke="#6A7282" stroke-width="1.99935" stroke-linecap="round" stroke-linejoin="round"/>
<path d="M5.4479 5.10817L1.99902 11.9959V17.994C1.99902 18.5242 2.20967 19.0328 2.58462 19.4077C2.95957 19.7827 3.46811 19.9933 3.99837 19.9933H19.9932C20.5234 19.9933 21.032 19.7827 21.4069 19.4077C21.7819 19.0328 21.9925 18.5242 21.9925 17.994V11.9959L18.5436 5.10817C18.3781 4.77507 18.123 4.49474 17.8068 4.29872C17.4907 4.10269 17.1262 3.99873 16.7542 3.99854H7.23732C6.86536 3.99873 6.50083 4.10269 6.18471 4.29872C5.86859 4.49474 5.61343 4.77507 5.4479 5.10817Z" stroke="#6A7282" stroke-width="1.99935" stroke-linecap="round" stroke-linejoin="round"/>
</svg>
