<svg width="16" height="16" viewBox="0 0 16 16" fill="none" xmlns="http://www.w3.org/2000/svg">
<g clip-path="url(#clip0_120_12)">
<path d="M14.6666 7.99992H13.0133C12.7219 7.9993 12.4384 8.09412 12.206 8.2699C11.9736 8.44567 11.8052 8.69272 11.7266 8.97325L10.1599 14.5466C10.1498 14.5812 10.1288 14.6116 10.0999 14.6333C10.0711 14.6549 10.036 14.6666 9.99992 14.6666C9.96386 14.6666 9.92877 14.6549 9.89992 14.6333C9.87107 14.6116 9.85002 14.5812 9.83992 14.5466L6.15992 1.45325C6.14982 1.41863 6.12877 1.38822 6.09992 1.36659C6.07107 1.34495 6.03598 1.33325 5.99992 1.33325C5.96386 1.33325 5.92877 1.34495 5.89992 1.36659C5.87107 1.38822 5.85002 1.41863 5.83992 1.45325L4.27325 7.02658C4.19489 7.30602 4.02751 7.55226 3.79649 7.72793C3.56548 7.90359 3.28346 7.99909 2.99325 7.99992H1.33325" stroke="#155DFC" stroke-width="1.33333" stroke-linecap="round" stroke-linejoin="round"/>
</g>
<defs>
<clipPath id="clip0_120_12">
<rect width="16" height="16" fill="white"/>
</clipPath>
</defs>
</svg>
